# xmcd
#
# Track frame offsets:
#	180
#	29114
#	51592
#	63958
#	98316
#	144587
#	161050
#	176281
#	215789
#	231477
#	245540
#	266863
#	304085
#
# Disc length: 4399 seconds
#
# Revision: 1
# Processed by: cddbd v1.5.1PL2 Copyright (c) Steve Scherf et al.
# Submitted via: audiograbber 1.83.01
#
DISCID=c3112d0d
DTITLE=Various Artist - africolor
DYEAR=1900
DGENRE=Ethnic
TTITLE0=Danyel Waro - Kadok
TTITLE1=Djely Moussa Diawara - Moya
TTITLE2=Nahawa Doumbia - Jiwe
TTITLE3=Mah Damba - Mayanadia
TTITLE4=Doudou N'Diaye Rose - Baye Ken N'Diaye
TTITLE5=NDeings Poulo SOW - Rambax
TTITLE6=Zekli - Donne moi la main
TTITLE7=Danyel Waro - Tine Blouz
TTITLE8=Salala - Male Hale
TTITLE9=Fenoamby - Akory Atao
TTITLE10=Ibrahim Hamma Dicko - Woti Bayen
TTITLE11=Lobi Traore - Ni Tougou La Mogo Minko
TTITLE12=Diely Moussa Diawara - Democratie
EXTD=
EXTT0=
EXTT1=
EXTT2=
EXTT3=
EXTT4=
EXTT5=
EXTT6=
EXTT7=
EXTT8=
EXTT9=
EXTT10=
EXTT11=
EXTT12=
PLAYORDER=
